<svg width="480" height="628" viewBox="0 0 480 628" fill="none" xmlns="http://www.w3.org/2000/svg">
<path d="M469.894 469.144L476.09 461.902" stroke="#0A0A0A"/>
<path d="M469.894 469.144L485.852 481.711" stroke="#0A0A0A"/>
<path d="M488.718 561.836L465.303 549.338" stroke="#0A0A0A"/>
<path d="M466.555 329.201L464.418 351.414" stroke="#0A0A0A"/>
<path d="M466.554 329.201L468.547 308.478" stroke="#0A0A0A"/>
<rect x="465.894" y="465.144" width="8" height="8" fill="#A11C2B" stroke="#0A0A0A"/>
<rect x="479.937" y="452.459" width="4" height="4" fill="#0A0A0A"/>
<rect x="474.09" y="459.902" width="4" height="4" fill="#0A0A0A"/>
<rect x="463.303" y="547.338" width="4" height="4" fill="#0A0A0A"/>
<rect x="462.554" y="325.201" width="8" height="8" fill="#A11C2B" stroke="#0A0A0A"/>
<rect x="462.418" y="349.414" width="4" height="4" fill="#0A0A0A"/>
<path d="M122.839 100.81C153.644 70.6922 195.63 56.282 241.928 68.3491C297.953 82.9514 324.672 141.157 334.858 193.316C338.639 212.678 340.637 233.301 340.841 254.266C375.323 209.322 437.091 198.488 486.41 230.641C525.217 255.941 537.516 296.196 533.721 335.659C530.069 373.633 511.827 412.883 487.382 446.885C481.937 454.459 476.09 461.902 469.894 469.144C485.852 481.711 503.005 492.975 520.492 502.31C536.93 511.084 543.143 531.522 534.368 547.96C525.594 564.398 505.156 570.61 488.718 561.836C465.303 549.338 442.134 533.838 420.712 516.16C411.831 523.05 402.628 529.431 393.181 535.183C356.883 557.282 314.231 571.718 271.229 566.641C229.598 561.726 194.165 543.375 165.118 517.402C106.188 536.795 38.5309 542.826 -24.7063 548.123C-43.2743 549.678 -59.5875 535.886 -61.1426 517.318C-62.6976 498.75 -48.9059 482.437 -30.338 480.882C23.7354 476.353 74.0222 471.622 117.925 460.78C112.772 452.593 108.012 444.166 103.65 435.585C70.3125 370.005 56.7267 289.547 67.2223 219.751C74.2885 172.761 93.0526 129.932 122.839 100.81ZM320.621 376.228C302.025 425.678 271.617 460.323 234.475 484.729C248.439 492.672 263.399 497.772 279.14 499.63C302.228 502.356 329.666 494.854 358.091 477.548C362.791 474.686 367.441 471.599 372.023 468.314C364.198 459.051 356.968 449.49 350.473 439.7C337.554 420.228 326.883 398.709 320.621 376.228ZM224.909 133.645C203.761 128.132 185.617 133.8 170.011 149.058C153.386 165.311 139.456 193.158 133.948 229.785C125.634 285.073 136.54 351.383 163.8 405.007C169.651 416.517 176.099 427.173 183.086 436.871C218.525 417.916 244.795 390.048 259.563 346.615C274.127 303.78 277.239 250.316 268.633 206.249C259.435 159.148 240.581 137.729 224.909 133.645ZM449.559 287.166C427.576 272.834 402.258 279.361 390.059 302.042C375.817 328.524 380.494 362.899 406.699 402.396C411.104 409.035 416.002 415.613 421.319 422.076C425.266 417.317 429.035 412.448 432.594 407.497C452.773 379.43 464.418 351.414 466.555 329.201C468.547 308.478 462.533 295.624 449.559 287.166Z" fill="#BC2132"/>
<path d="M122.839 100.81C153.644 70.6922 195.63 56.282 241.928 68.3491C297.953 82.9514 324.672 141.157 334.858 193.316C338.639 212.678 340.637 233.301 340.841 254.266C375.323 209.322 437.091 198.488 486.41 230.641C525.217 255.941 537.516 296.196 533.721 335.659C530.069 373.633 511.827 412.883 487.382 446.885C481.937 454.459 476.09 461.902 469.894 469.144C485.852 481.711 503.005 492.975 520.492 502.31C536.93 511.084 543.143 531.522 534.368 547.96C525.594 564.398 505.156 570.61 488.718 561.836C465.303 549.338 442.134 533.838 420.712 516.16C411.831 523.05 402.628 529.431 393.181 535.183C356.883 557.282 314.231 571.718 271.229 566.641C229.598 561.726 194.165 543.375 165.118 517.402C106.188 536.795 38.5309 542.826 -24.7063 548.123C-43.2743 549.678 -59.5875 535.886 -61.1426 517.318C-62.6976 498.75 -48.9059 482.437 -30.338 480.882C23.7354 476.353 74.0222 471.622 117.925 460.78C112.772 452.593 108.012 444.166 103.65 435.585C70.3125 370.005 56.7267 289.547 67.2223 219.751C74.2885 172.761 93.0526 129.932 122.839 100.81ZM320.621 376.228C302.025 425.678 271.617 460.323 234.475 484.729C248.439 492.672 263.399 497.772 279.14 499.63C302.228 502.356 329.666 494.854 358.091 477.548C362.791 474.686 367.441 471.599 372.023 468.314C364.198 459.051 356.968 449.49 350.473 439.7C337.554 420.228 326.883 398.709 320.621 376.228ZM224.909 133.645C203.761 128.132 185.617 133.8 170.011 149.058C153.386 165.311 139.456 193.158 133.948 229.785C125.634 285.073 136.54 351.383 163.8 405.007C169.651 416.517 176.099 427.173 183.086 436.871C218.525 417.916 244.795 390.048 259.563 346.615C274.127 303.78 277.239 250.316 268.633 206.249C259.435 159.148 240.581 137.729 224.909 133.645ZM449.559 287.166C427.576 272.834 402.258 279.361 390.059 302.042C375.817 328.524 380.494 362.899 406.699 402.396C411.104 409.035 416.002 415.613 421.319 422.076C425.266 417.317 429.035 412.448 432.594 407.497C452.773 379.43 464.418 351.414 466.555 329.201C468.547 308.478 462.533 295.624 449.559 287.166Z" stroke="#0A0A0A" stroke-linecap="round"/>
<path d="M122.839 100.81L153.644 70.6921" stroke="#0A0A0A"/>
<path d="M241.928 68.3491L195.63 56.282" stroke="#0A0A0A"/>
<path d="M241.928 68.3489L297.953 82.9512" stroke="#0A0A0A"/>
<path d="M334.857 193.316L324.671 141.157" stroke="#0A0A0A"/>
<path d="M334.858 193.316L338.639 212.679" stroke="#0A0A0A"/>
<path d="M340.841 254.266L340.636 233.302" stroke="#0A0A0A"/>
<path d="M340.841 254.266L375.323 209.322" stroke="#0A0A0A"/>
<path d="M486.41 230.641L437.091 198.488" stroke="#0A0A0A"/>
<path d="M420.711 516.159L442.133 533.838" stroke="#0A0A0A"/>
<path d="M420.712 516.159L411.831 523.05" stroke="#0A0A0A"/>
<path d="M393.181 535.183L402.628 529.431" stroke="#0A0A0A"/>
<path d="M393.182 535.182L356.883 557.282" stroke="#0A0A0A"/>
<path d="M271.229 566.641L314.231 571.718" stroke="#0A0A0A"/>
<path d="M271.228 566.641L229.598 561.726" stroke="#0A0A0A"/>
<path d="M165.118 517.403L194.165 543.375" stroke="#0A0A0A"/>
<path d="M165.118 517.403L106.188 536.795" stroke="#0A0A0A"/>
<path d="M-24.7065 548.123L38.5306 542.826" stroke="#0A0A0A"/>
<path d="M-30.3384 480.882L23.735 476.353" stroke="#0A0A0A"/>
<path d="M117.925 460.78L74.022 471.622" stroke="#0A0A0A"/>
<path d="M117.925 460.78L112.772 452.593" stroke="#0A0A0A"/>
<path d="M103.65 435.585L108.012 444.166" stroke="#0A0A0A"/>
<path d="M103.649 435.585L70.312 370.005" stroke="#0A0A0A"/>
<path d="M67.2227 219.751L56.7271 289.547" stroke="#0A0A0A"/>
<path d="M67.2222 219.751L74.2884 172.761" stroke="#0A0A0A"/>
<path d="M122.839 100.81L93.0522 129.933" stroke="#0A0A0A"/>
<path d="M320.621 376.228L302.025 425.678" stroke="#0A0A0A"/>
<path d="M234.475 484.729L271.617 460.323" stroke="#0A0A0A"/>
<path d="M234.475 484.729L248.439 492.672" stroke="#0A0A0A"/>
<path d="M279.14 499.63L263.399 497.772" stroke="#0A0A0A"/>
<path d="M279.14 499.631L302.228 502.356" stroke="#0A0A0A"/>
<path d="M358.091 477.548L329.667 494.854" stroke="#0A0A0A"/>
<path d="M358.091 477.547L362.791 474.686" stroke="#0A0A0A"/>
<path d="M372.022 468.314L367.441 471.599" stroke="#0A0A0A"/>
<path d="M372.023 468.314L364.198 459.051" stroke="#0A0A0A"/>
<path d="M350.473 439.7L356.968 449.49" stroke="#0A0A0A"/>
<path d="M350.473 439.7L337.554 420.228" stroke="#0A0A0A"/>
<path d="M320.622 376.228L326.883 398.709" stroke="#0A0A0A"/>
<path d="M224.91 133.645L203.761 128.133" stroke="#0A0A0A"/>
<path d="M170.01 149.058L185.617 133.8" stroke="#0A0A0A"/>
<path d="M170.011 149.058L153.386 165.312" stroke="#0A0A0A"/>
<path d="M133.949 229.786L139.457 193.158" stroke="#0A0A0A"/>
<path d="M133.948 229.785L125.634 285.073" stroke="#0A0A0A"/>
<path d="M163.8 405.007L136.54 351.383" stroke="#0A0A0A"/>
<path d="M163.8 405.008L169.651 416.517" stroke="#0A0A0A"/>
<path d="M183.086 436.87L176.099 427.173" stroke="#0A0A0A"/>
<path d="M183.086 436.871L218.525 417.916" stroke="#0A0A0A"/>
<path d="M259.562 346.615L244.794 390.048" stroke="#0A0A0A"/>
<path d="M259.563 346.615L274.128 303.78" stroke="#0A0A0A"/>
<path d="M268.633 206.249L277.239 250.316" stroke="#0A0A0A"/>
<path d="M268.633 206.249L259.435 159.148" stroke="#0A0A0A"/>
<path d="M224.91 133.644L240.582 137.729" stroke="#0A0A0A"/>
<path d="M449.559 287.165L427.576 272.834" stroke="#0A0A0A"/>
<path d="M390.059 302.042L402.258 279.361" stroke="#0A0A0A"/>
<path d="M390.06 302.042L375.818 328.524" stroke="#0A0A0A"/>
<path d="M406.7 402.396L380.495 362.899" stroke="#0A0A0A"/>
<path d="M406.7 402.396L411.105 409.035" stroke="#0A0A0A"/>
<path d="M421.32 422.076L416.002 415.613" stroke="#0A0A0A"/>
<path d="M421.32 422.076L425.267 417.317" stroke="#0A0A0A"/>
<path d="M432.594 407.497L429.035 412.448" stroke="#0A0A0A"/>
<path d="M432.594 407.497L452.772 379.43" stroke="#0A0A0A"/>
<path d="M449.559 287.166L462.533 295.624" stroke="#0A0A0A"/>
<rect x="118.839" y="96.8103" width="8" height="8" fill="#A11C2B" stroke="#0A0A0A"/>
<rect x="237.928" y="64.3489" width="8" height="8" fill="#A11C2B" stroke="#0A0A0A"/>
<rect x="151.644" y="68.6921" width="4" height="4" fill="#0A0A0A"/>
<rect x="193.63" y="54.282" width="4" height="4" fill="#0A0A0A"/>
<rect x="330.858" y="189.316" width="8" height="8" fill="#A11C2B" stroke="#0A0A0A"/>
<rect x="295.953" y="80.9514" width="4" height="4" fill="#0A0A0A"/>
<rect x="322.671" y="139.157" width="4" height="4" fill="#0A0A0A"/>
<rect x="336.841" y="250.266" width="8" height="8" fill="#A11C2B" stroke="#0A0A0A"/>
<rect x="336.639" y="210.678" width="4" height="4" fill="#0A0A0A"/>
<rect x="338.636" y="231.302" width="4" height="4" fill="#0A0A0A"/>
<rect x="373.324" y="207.322" width="4" height="4" fill="#0A0A0A"/>
<rect x="435.091" y="196.488" width="4" height="4" fill="#0A0A0A"/>
<rect x="416.711" y="512.159" width="8" height="8" fill="#A11C2B" stroke="#0A0A0A"/>
<rect x="440.133" y="531.838" width="4" height="4" fill="#0A0A0A"/>
<rect x="389.181" y="531.182" width="8" height="8" fill="#A11C2B" stroke="#0A0A0A"/>
<rect x="409.831" y="521.05" width="4" height="4" fill="#0A0A0A"/>
<rect x="400.628" y="527.431" width="4" height="4" fill="#0A0A0A"/>
<rect x="267.229" y="562.641" width="8" height="8" fill="#A11C2B" stroke="#0A0A0A"/>
<rect x="354.883" y="555.282" width="4" height="4" fill="#0A0A0A"/>
<rect x="312.231" y="569.718" width="4" height="4" fill="#0A0A0A"/>
<rect x="161.118" y="513.403" width="8" height="8" fill="#A11C2B" stroke="#0A0A0A"/>
<rect x="227.598" y="559.726" width="4" height="4" fill="#0A0A0A"/>
<rect x="192.165" y="541.375" width="4" height="4" fill="#0A0A0A"/>
<rect x="104.188" y="534.795" width="4" height="4" fill="#0A0A0A"/>
<rect x="36.5308" y="540.826" width="4" height="4" fill="#0A0A0A"/>
<rect x="113.925" y="456.78" width="8" height="8" fill="#A11C2B" stroke="#0A0A0A"/>
<rect x="21.7358" y="474.353" width="4" height="4" fill="#0A0A0A"/>
<rect x="72.022" y="469.622" width="4" height="4" fill="#0A0A0A"/>
<rect x="99.6499" y="431.585" width="8" height="8" fill="#A11C2B" stroke="#0A0A0A"/>
<rect x="110.772" y="450.593" width="4" height="4" fill="#0A0A0A"/>
<rect x="106.012" y="442.166" width="4" height="4" fill="#0A0A0A"/>
<rect x="63.2222" y="215.751" width="8" height="8" fill="#A11C2B" stroke="#0A0A0A"/>
<rect x="68.312" y="368.005" width="4" height="4" fill="#0A0A0A"/>
<rect x="54.7271" y="287.547" width="4" height="4" fill="#0A0A0A"/>
<rect x="118.839" y="96.8103" width="8" height="8" fill="#A11C2B" stroke="#0A0A0A"/>
<rect x="72.2886" y="170.761" width="4" height="4" fill="#0A0A0A"/>
<rect x="91.0522" y="127.932" width="4" height="4" fill="#0A0A0A"/>
<rect x="316.622" y="372.228" width="8" height="8" fill="#A11C2B" stroke="#0A0A0A"/>
<rect x="230.475" y="480.729" width="8" height="8" fill="#A11C2B" stroke="#0A0A0A"/>
<rect x="300.025" y="423.678" width="4" height="4" fill="#0A0A0A"/>
<rect x="269.617" y="458.323" width="4" height="4" fill="#0A0A0A"/>
<rect x="275.14" y="495.631" width="8" height="8" fill="#A11C2B" stroke="#0A0A0A"/>
<rect x="246.439" y="490.672" width="4" height="4" fill="#0A0A0A"/>
<rect x="261.399" y="495.772" width="4" height="4" fill="#0A0A0A"/>
<rect x="354.091" y="473.548" width="8" height="8" fill="#A11C2B" stroke="#0A0A0A"/>
<rect x="300.228" y="500.356" width="4" height="4" fill="#0A0A0A"/>
<rect x="327.667" y="492.854" width="4" height="4" fill="#0A0A0A"/>
<rect x="368.023" y="464.314" width="8" height="8" fill="#A11C2B" stroke="#0A0A0A"/>
<rect x="360.791" y="472.686" width="4" height="4" fill="#0A0A0A"/>
<rect x="365.441" y="469.599" width="4" height="4" fill="#0A0A0A"/>
<rect x="346.473" y="435.7" width="8" height="8" fill="#A11C2B" stroke="#0A0A0A"/>
<rect x="362.198" y="457.051" width="4" height="4" fill="#0A0A0A"/>
<rect x="354.968" y="447.49" width="4" height="4" fill="#0A0A0A"/>
<rect x="316.622" y="372.228" width="8" height="8" fill="#A11C2B" stroke="#0A0A0A"/>
<rect x="335.554" y="418.228" width="4" height="4" fill="#0A0A0A"/>
<rect x="324.883" y="396.709" width="4" height="4" fill="#0A0A0A"/>
<rect x="220.91" y="129.644" width="8" height="8" fill="#A11C2B" stroke="#0A0A0A"/>
<rect x="166.01" y="145.058" width="8" height="8" fill="#A11C2B" stroke="#0A0A0A"/>
<rect x="201.761" y="126.133" width="4" height="4" fill="#0A0A0A"/>
<rect x="183.617" y="131.8" width="4" height="4" fill="#0A0A0A"/>
<rect x="129.949" y="225.785" width="8" height="8" fill="#A11C2B" stroke="#0A0A0A"/>
<rect x="151.386" y="163.311" width="4" height="4" fill="#0A0A0A"/>
<rect x="137.457" y="191.158" width="4" height="4" fill="#0A0A0A"/>
<rect x="159.8" y="401.008" width="8" height="8" fill="#A11C2B" stroke="#0A0A0A"/>
<rect x="123.634" y="283.073" width="4" height="4" fill="#0A0A0A"/>
<rect x="134.54" y="349.383" width="4" height="4" fill="#0A0A0A"/>
<rect x="179.086" y="432.871" width="8" height="8" fill="#A11C2B" stroke="#0A0A0A"/>
<rect x="167.651" y="414.517" width="4" height="4" fill="#0A0A0A"/>
<rect x="174.099" y="425.173" width="4" height="4" fill="#0A0A0A"/>
<rect x="255.563" y="342.615" width="8" height="8" fill="#A11C2B" stroke="#0A0A0A"/>
<rect x="216.525" y="415.915" width="4" height="4" fill="#0A0A0A"/>
<rect x="242.794" y="388.048" width="4" height="4" fill="#0A0A0A"/>
<rect x="264.633" y="202.249" width="8" height="8" fill="#A11C2B" stroke="#0A0A0A"/>
<rect x="272.127" y="301.78" width="4" height="4" fill="#0A0A0A"/>
<rect x="275.239" y="248.317" width="4" height="4" fill="#0A0A0A"/>
<rect x="220.91" y="129.644" width="8" height="8" fill="#A11C2B" stroke="#0A0A0A"/>
<rect x="257.435" y="157.148" width="4" height="4" fill="#0A0A0A"/>
<rect x="238.582" y="135.729" width="4" height="4" fill="#0A0A0A"/>
<rect x="445.559" y="283.166" width="8" height="8" fill="#A11C2B" stroke="#0A0A0A"/>
<rect x="386.059" y="298.042" width="8" height="8" fill="#A11C2B" stroke="#0A0A0A"/>
<rect x="425.576" y="270.834" width="4" height="4" fill="#0A0A0A"/>
<rect x="400.258" y="277.361" width="4" height="4" fill="#0A0A0A"/>
<rect x="402.7" y="398.396" width="8" height="8" fill="#A11C2B" stroke="#0A0A0A"/>
<rect x="373.817" y="326.524" width="4" height="4" fill="#0A0A0A"/>
<rect x="378.495" y="360.899" width="4" height="4" fill="#0A0A0A"/>
<rect x="417.32" y="418.076" width="8" height="8" fill="#A11C2B" stroke="#0A0A0A"/>
<rect x="409.104" y="407.035" width="4" height="4" fill="#0A0A0A"/>
<rect x="414.002" y="413.613" width="4" height="4" fill="#0A0A0A"/>
<rect x="428.594" y="403.497" width="8" height="8" fill="#A11C2B" stroke="#0A0A0A"/>
<rect x="423.266" y="415.317" width="4" height="4" fill="#0A0A0A"/>
<rect x="427.035" y="410.448" width="4" height="4" fill="#0A0A0A"/>
<rect x="450.773" y="377.43" width="4" height="4" fill="#0A0A0A"/>
<rect x="445.559" y="283.166" width="8" height="8" fill="#A11C2B" stroke="#0A0A0A"/>
<rect x="466.547" y="306.478" width="4" height="4" fill="#0A0A0A"/>
<rect x="460.534" y="293.624" width="4" height="4" fill="#0A0A0A"/>
</svg>
