<svg width="199" height="64" viewBox="0 0 199 64" fill="none" xmlns="http://www.w3.org/2000/svg">
<g clip-path="url(#clip0_9614_8935)">
<path fill-rule="evenodd" clip-rule="evenodd" d="M19.8436 38.1312C17.7205 37.5119 15.9407 36.0613 14.9159 34.1147C14.8089 33.9176 14.7158 33.7401 14.6364 33.5871C13.3732 31.1465 14.1443 28.1642 16.4663 26.6915C22.3551 22.9791 28.393 19.4932 34.581 16.2348C37.0166 14.9604 39.9798 15.7855 41.5402 18.0484C41.842 18.4862 42.3151 19.2187 42.8771 20.1158C43.3358 20.8445 43.5286 21.7066 43.4232 22.5574C43.1754 24.5573 42.5716 26.3356 41.7133 27.691C41.1566 28.5697 40.5024 29.2743 39.7655 29.6492C39.8203 28.522 39.7358 27.4634 39.4522 26.5808C38.4079 23.3305 34.6654 22.1672 32.4132 24.1167C31.6889 24.7437 31.2322 25.4629 31.0034 26.213C30.2766 25.2773 29.2561 24.4851 28.1453 24.0368C26.9286 23.5454 25.623 23.4617 24.4656 23.8965C20.9789 25.2064 20.3472 28.5679 21.6163 31.3381C22.6516 33.5986 24.8936 35.4638 27.3329 36.8545C27.3257 36.8663 27.3182 36.8782 27.3107 36.8901C26.8688 37.6072 25.7739 38.2622 24.2256 38.5073C22.9974 38.702 21.5291 38.6246 19.8436 38.1312ZM45.7917 26.7053C45.861 26.5073 46.0412 26.3687 46.2517 26.3508C46.4625 26.3328 46.6645 26.4386 46.7689 26.6217C47.9278 28.6499 48.8158 30.3045 49.0166 30.7402C50.1647 33.2309 49.505 36.1549 47.1883 37.6273C41.2887 41.3545 35.2481 44.8424 29.0661 48.0901C26.629 49.362 23.6088 48.5717 22.1086 46.2691C22.0028 46.107 20.1857 43.2056 19.3606 41.8871C19.2968 41.7827 19.3023 41.6508 19.3743 41.5527C19.4466 41.4544 19.5715 41.4092 19.6912 41.4381C22.5111 42.1219 24.8309 41.8755 26.5326 41.267C28.3055 40.6333 29.5023 39.5783 30.1093 38.5934C30.1717 38.4925 30.2328 38.3915 30.2929 38.2908C30.5827 38.4094 30.8694 38.5209 31.1518 38.6252L31.1523 38.6253C32.6504 39.1771 34.3075 39.0973 35.7395 38.4054C37.171 37.7133 38.252 36.4688 38.7311 34.9622C38.9156 34.383 39.0865 33.7756 39.2344 33.1569C41.2548 32.9228 43.1151 31.5997 44.4907 29.4278C44.9957 28.6306 45.435 27.7141 45.7917 26.7053ZM28.7502 33.9699C26.9635 32.9579 25.3525 31.6475 24.5995 30.0037C24.0839 28.8782 24.2207 27.4689 25.6375 26.9365C26.1749 26.7348 26.7851 26.936 27.3227 27.2421C27.965 27.6081 28.5277 28.1719 28.7667 28.7966C29.4281 30.5267 29.3625 32.2137 28.7502 33.9699ZM36.5336 29.5927C35.8537 29.4014 35.2485 29.0978 34.631 28.4798C34.3179 28.1667 34.1092 27.8138 34.1034 27.4455C34.0982 27.1269 34.2732 26.8296 34.5742 26.5689C35.1828 26.0422 36.0475 26.678 36.3296 27.5561C36.5208 28.151 36.5736 28.8479 36.5336 29.5927ZM35.9563 32.7907C35.8458 33.1947 35.7266 33.5911 35.6049 33.9723L35.6048 33.9727C35.3948 34.6338 34.9209 35.1792 34.2935 35.4826C33.666 35.7861 32.9397 35.8208 32.2834 35.5794C32.1018 35.5123 31.9169 35.4421 31.7298 35.3687C32.296 33.8725 32.5677 32.4162 32.5179 30.9674C33.62 32.0038 34.6799 32.4791 35.9563 32.7907Z" fill="white"/>
<path d="M189.139 44.3283H185.087V33.0236C185.087 31.6616 184.917 30.7082 184.509 30.0953C184.134 29.5165 183.487 29.2781 182.602 29.3803C181.342 29.5505 180.354 30.538 179.639 32.3767C178.822 34.3857 178.448 37.2118 178.448 40.8211V44.3283H174.43V26.1455H178.414L178.277 31.8659H178.448C178.856 30.0272 179.571 28.5971 180.627 27.5416C181.682 26.486 182.908 25.9072 184.338 25.8391C185.734 25.771 186.858 26.2136 187.709 27.167C188.663 28.2566 189.139 29.9251 189.139 32.1383V44.3283Z" fill="white"/>
<path d="M171.706 26.1454V44.3281H167.722L167.926 40.4464H167.79C167.415 41.8084 166.734 42.864 165.747 43.6131C164.861 44.2941 163.874 44.6346 162.784 44.6346C161.422 44.7027 160.197 44.3281 159.107 43.579C158.017 42.8299 157.166 41.7403 156.587 40.3443C155.974 38.8801 155.668 37.1776 155.668 35.2368C155.668 33.2619 155.974 31.5253 156.655 30.0271C157.268 28.6311 158.154 27.5755 159.243 26.8605C160.333 26.1114 161.525 25.8049 162.887 25.873C163.874 25.9071 164.793 26.2135 165.611 26.7583C166.496 27.3712 167.177 28.2225 167.62 29.3121H167.722V26.1795L171.706 26.1454ZM167.654 35.2708C167.654 34.045 167.483 32.9895 167.143 32.0701C166.802 31.1167 166.36 30.4017 165.747 29.8909C165.134 29.3461 164.419 29.1078 163.602 29.1078C162.784 29.1078 162.103 29.3461 161.491 29.8569C160.878 30.3336 160.401 31.0486 160.094 32.002C159.754 32.9554 159.618 34.045 159.618 35.2708C159.618 36.4966 159.788 37.5522 160.129 38.5056C160.469 39.459 160.912 40.174 161.525 40.6848C162.137 41.1615 162.818 41.4339 163.568 41.4339C164.827 41.4339 165.815 40.855 166.564 39.7314C167.279 38.5737 167.654 37.1095 167.654 35.2708Z" fill="white"/>
<path d="M143.499 19.8115C143.431 19.8115 143.397 22.0929 143.363 26.6556L143.329 33.4997H143.534C143.874 31.2523 144.555 29.4817 145.645 28.1878C146.7 26.962 147.96 26.3491 149.39 26.281C150.616 26.2129 151.603 26.5534 152.421 27.3025C153.17 28.0176 153.646 28.9369 153.919 30.0946C154.191 31.2523 154.157 32.41 153.851 33.5677C153.578 34.7936 153.034 35.8151 152.216 36.5642C151.331 37.4495 150.241 37.9262 148.947 37.9943V38.0624C150.071 38.1305 151.093 38.4369 151.978 38.9136C152.897 39.4244 153.612 40.1394 154.157 41.0588C154.77 42.0122 155.111 43.1018 155.179 44.3616H151.195C151.195 42.8634 150.752 41.7057 149.935 40.8885C149.186 40.0713 148.198 39.6968 146.973 39.6968H146.223V36.5642H146.836C147.722 36.5642 148.437 36.2918 149.05 35.8151C149.731 35.2362 150.105 34.4531 150.173 33.4656C150.139 32.3419 149.935 31.5247 149.56 31.014C149.152 30.5373 148.539 30.333 147.722 30.4011C146.428 30.5373 145.44 31.5588 144.691 33.3975C143.908 35.4065 143.534 38.2326 143.534 41.876V44.3276H139.516V19.8115H143.499Z" fill="white"/>
<path d="M136.405 26.145V44.3277H132.421V26.145H136.405ZM136.78 21.5482C136.78 20.9353 136.541 20.4586 136.099 20.05C135.622 19.6755 135.077 19.4712 134.396 19.4712C133.715 19.4712 133.171 19.6755 132.728 20.0841C132.251 20.4927 132.047 20.9694 132.047 21.5823C132.047 22.1952 132.251 22.6719 132.728 23.0805C133.171 23.4891 133.715 23.6593 134.396 23.6593C135.077 23.6593 135.622 23.4891 136.099 23.0805C136.541 22.6719 136.78 22.1611 136.78 21.5482Z" fill="white"/>
<path d="M125.351 19.8115H129.334V44.3276H125.351L125.555 40.4118H125.419C125.044 41.8079 124.363 42.8634 123.376 43.6125C122.49 44.2935 121.503 44.634 120.413 44.634C119.051 44.7021 117.826 44.3276 116.736 43.5785C115.646 42.8294 114.795 41.7398 114.216 40.3437C113.603 38.8796 113.297 37.1771 113.297 35.2362C113.297 33.2613 113.603 31.4907 114.284 29.9925C114.897 28.6305 115.783 27.5749 116.872 26.8258C117.962 26.1108 119.153 25.7703 120.515 25.8384C121.503 25.9065 122.422 26.1789 123.239 26.7237C124.125 27.3366 124.806 28.1878 125.248 29.2774H125.351V19.8115ZM125.283 35.2362C125.283 34.0445 125.112 32.9889 124.772 32.0695C124.431 31.1502 123.989 30.4351 123.376 29.8903C122.763 29.3796 122.048 29.1072 121.231 29.1072C120.413 29.1072 119.698 29.3796 119.085 29.8563C118.472 30.367 118.03 31.0821 117.689 32.0014C117.349 32.9548 117.213 34.0104 117.213 35.2362C117.213 36.462 117.383 37.5516 117.723 38.471C118.064 39.4244 118.507 40.1394 119.119 40.6161C119.732 41.1269 120.413 41.3652 121.196 41.3652C122.422 41.3652 123.41 40.7864 124.159 39.6627C124.908 38.5391 125.283 37.0749 125.283 35.2362Z" fill="white"/>
<path d="M111.327 26.1454V44.3281H107.343L107.547 40.4464H107.411C107.036 41.8084 106.355 42.864 105.368 43.6131C104.483 44.2941 103.495 44.6346 102.406 44.6346C101.044 44.7027 99.8177 44.3281 98.7281 43.579C97.6385 42.8299 96.7873 41.7403 96.2084 40.3443C95.5955 38.8801 95.2891 37.1776 95.2891 35.2368C95.2891 33.2619 95.5955 31.5253 96.2765 30.0271C96.8894 28.6311 97.7747 27.5755 98.8643 26.8605C99.9539 26.1114 101.146 25.8049 102.508 25.873C103.495 25.9071 104.414 26.2135 105.232 26.7583C106.117 27.3712 106.798 28.2225 107.241 29.3121H107.343V26.1795L111.327 26.1454ZM107.275 35.2708C107.275 34.045 107.104 32.9895 106.764 32.0701C106.423 31.1167 105.981 30.4017 105.368 29.8909C104.755 29.3461 104.04 29.1078 103.223 29.1078C102.406 29.1078 101.725 29.3461 101.112 29.8569C100.499 30.3336 100.022 31.0486 99.7156 32.002C99.3751 32.9554 99.2389 34.045 99.2389 35.2708C99.2389 36.4966 99.4091 37.5522 99.7496 38.5056C100.09 39.459 100.533 40.174 101.146 40.6848C101.759 41.1615 102.44 41.4339 103.189 41.4339C104.449 41.4339 105.436 40.855 106.185 39.7314C106.9 38.5737 107.275 37.1095 107.275 35.2708Z" fill="white"/>
<path d="M81.9476 19.8115V29.3115H82.0157C82.4243 28.2219 83.1053 27.3706 84.0246 26.7577C84.8419 26.2129 85.7612 25.9065 86.7827 25.8724C88.0766 25.8043 89.3024 26.1108 90.392 26.8599C91.4816 27.5749 92.3669 28.6305 92.9798 30.0265C93.6268 31.5247 93.9673 33.2613 93.9673 35.2362C93.9673 37.1771 93.6608 38.8796 93.0479 40.3437C92.435 41.7398 91.6178 42.8294 90.5282 43.5785C89.4386 44.3276 88.2128 44.7021 86.8508 44.634C85.7272 44.634 84.7397 44.2935 83.8884 43.6125C82.8669 42.8634 82.1859 41.8079 81.8454 40.4459H81.7092L81.9135 44.3276H77.9297V19.8115H81.9476ZM81.9816 35.2703C81.9816 37.0749 82.3221 38.5391 83.0712 39.6627C83.8203 40.7864 84.8078 41.3652 86.0677 41.3993C86.8168 41.3993 87.4978 41.1269 88.1107 40.6502C88.7236 40.1394 89.2003 39.4244 89.5408 38.505C89.8813 37.5516 90.0515 36.4961 90.0515 35.2703C90.0515 34.0444 89.8813 32.9548 89.5408 32.0355C89.2003 31.0821 88.7576 30.367 88.1447 29.8903C87.5318 29.3796 86.8508 29.1412 86.0336 29.1412C85.2164 29.1412 84.5013 29.3796 83.8884 29.9244C83.2755 30.4351 82.8329 31.1502 82.4924 32.0695C82.1519 32.9889 81.9816 34.0444 81.9816 35.2703Z" fill="white"/>
<path d="M75.2095 26.1454V44.3281H71.2256L71.4299 40.4464H71.2937C70.9191 41.8084 70.2381 42.864 69.2507 43.6131C68.3654 44.2941 67.3779 44.6346 66.2883 44.6346C64.9263 44.7027 63.7005 44.3281 62.6109 43.579C61.5213 42.8299 60.6701 41.7403 60.0912 40.3443C59.4783 38.8801 59.1719 37.1776 59.1719 35.2368C59.1719 33.2619 59.4783 31.5253 60.1593 30.0271C60.7722 28.6311 61.6575 27.5755 62.7471 26.8605C63.8367 26.1114 65.0285 25.8049 66.3905 25.873C67.3779 25.9071 68.2973 26.2135 69.1145 26.7583C69.9998 27.3712 70.6808 28.2225 71.1234 29.3121H71.2256V26.1795L75.2095 26.1454ZM71.1575 35.2708C71.1575 34.045 70.9872 32.9895 70.6467 32.0701C70.3062 31.1167 69.8636 30.4017 69.2507 29.8909C68.6378 29.3461 67.9227 29.1078 67.1055 29.1078C66.2883 29.1078 65.6073 29.3461 64.9944 29.8569C64.3815 30.3336 63.9048 31.0486 63.5984 32.002C63.2579 32.9554 63.1217 34.045 63.1217 35.2708C63.1217 36.4966 63.2919 37.5522 63.6324 38.5056C63.9729 39.459 64.4156 40.174 65.0285 40.6848C65.6414 41.1615 66.3224 41.4339 67.0715 41.4339C68.3313 41.4339 69.3188 40.855 70.0679 39.7314C70.7829 38.5737 71.1575 37.1095 71.1575 35.2708Z" fill="white"/>
</g>
<defs>
<clipPath id="clip0_9614_8935">
<rect width="198.079" height="64.0003" rx="1.78771" fill="white"/>
</clipPath>
</defs>
</svg>
