<svg width="32" height="32" viewBox="0 0 32 32" fill="none" xmlns="http://www.w3.org/2000/svg">
<rect width="32" height="32" rx="7" fill="#D72539"/>
<path fill-rule="evenodd" clip-rule="evenodd" d="M8.86334 19.5539C7.59962 19.1853 6.54021 18.3218 5.9302 17.1632C5.86653 17.0458 5.81113 16.9402 5.76383 16.8491C5.01193 15.3964 5.47095 13.6212 6.85304 12.7446C10.3583 10.5349 13.9523 8.45991 17.6356 6.52045C19.0853 5.76184 20.8491 6.253 21.7779 7.59996C21.9576 7.86053 22.2392 8.29654 22.5737 8.83055C22.8467 9.2643 22.9615 9.77742 22.8988 10.2839C22.7513 11.4742 22.3918 12.5328 21.8809 13.3396C21.5496 13.8626 21.1602 14.282 20.7216 14.5052C20.7542 13.8342 20.7039 13.2041 20.5351 12.6787C19.9135 10.744 17.6858 10.0516 16.3452 11.212C15.9141 11.5852 15.6423 12.0133 15.5061 12.4598C15.0735 11.9029 14.466 11.4313 13.8048 11.1645C13.0806 10.8719 12.3035 10.8221 11.6145 11.0809C9.53912 11.8606 9.16309 13.8615 9.9185 15.5104C10.5348 16.856 11.8693 17.9662 13.3212 18.794C13.3169 18.801 13.3125 18.8081 13.308 18.8152C13.045 19.242 12.3933 19.6319 11.4717 19.7778C10.7406 19.8937 9.8666 19.8476 8.86334 19.5539ZM24.3086 12.7528C24.3498 12.635 24.4571 12.5525 24.5824 12.5418C24.7078 12.5311 24.8281 12.5941 24.8903 12.7031C25.58 13.9103 26.1086 14.8952 26.2282 15.1545C26.9115 16.6371 26.5189 18.3776 25.1398 19.254C21.6282 21.4726 18.0327 23.5487 14.3529 25.4818C12.9022 26.2389 11.1045 25.7685 10.2115 24.3979C10.1486 24.3014 9.06698 22.5744 8.57583 21.7896C8.53786 21.7274 8.54115 21.6489 8.584 21.5905C8.62702 21.532 8.70138 21.5051 8.77262 21.5223C10.4512 21.9293 11.832 21.7827 12.8449 21.4205C13.9002 21.0433 14.6125 20.4153 14.9739 19.8291C15.011 19.769 15.0474 19.7089 15.0832 19.6489C15.2556 19.7195 15.4263 19.7859 15.5944 19.8479L15.5947 19.848C16.4864 20.1765 17.4728 20.129 18.3251 19.7171C19.1772 19.3052 19.8207 18.5644 20.1059 17.6676C20.2157 17.3229 20.3174 16.9614 20.4054 16.5931C21.608 16.4537 22.7154 15.6661 23.5342 14.3734C23.8348 13.8988 24.0963 13.3533 24.3086 12.7528ZM14.1649 17.077C13.1013 16.4746 12.1424 15.6946 11.6942 14.7162C11.3873 14.0462 11.4688 13.2074 12.3121 12.8904C12.6319 12.7704 12.9951 12.8901 13.3152 13.0724C13.6975 13.2902 14.0325 13.6258 14.1747 13.9977C14.5684 15.0275 14.5293 16.0316 14.1649 17.077ZM18.7978 14.4715C18.3931 14.3576 18.0329 14.177 17.6653 13.8091C17.479 13.6227 17.3548 13.4126 17.3513 13.1934C17.3482 13.0038 17.4523 12.8268 17.6315 12.6716C17.9938 12.3581 18.5085 12.7366 18.6764 13.2593C18.7902 13.6134 18.8216 14.0282 18.7978 14.4715ZM18.4542 16.3751C18.3884 16.6155 18.3175 16.8515 18.245 17.0784L18.2449 17.0787C18.12 17.4721 17.8379 17.7968 17.4644 17.9774C17.0909 18.158 16.6586 18.1787 16.2679 18.035C16.1599 17.9951 16.0498 17.9533 15.9384 17.9096C16.2755 17.019 16.4372 16.1521 16.4075 15.2898C17.0636 15.9067 17.6944 16.1896 18.4542 16.3751Z" fill="white"/>
</svg>
